# xmcd
#
# Track frame offsets:
#	150
#	14337
#	24085
#	44517
#	52532
#	71275
#	79660
#	103217
#	122917
#	136292
#	153402
#	184007
#	197120
#	205450
#	222442
#
# Disc length: 3418 seconds
#
# Revision: 1
# Processed by: cddbd v1.5.2PL0 Copyright (c) Steve Scherf et al.
# Submitted via: EasyCDDAExtractor 10.1.0.1
#
DISCID=cc0d580f
DTITLE=Niekku
DYEAR=1993
DGENRE=
TTITLE0=Koiviston polska
TTITLE1=Helise heliä metsä
TTITLE2=PC 1582
TTITLE3=Tutskovi
TTITLE4=Vestmanviiki
TTITLE5=Kyyrän Matti
TTITLE6=Polkkaa ja polskaa
TTITLE7=Velisurmaaja
TTITLE8=Kanteleenrakentajien ehtoo
TTITLE9=Tva konungabarn
TTITLE10=Kuljun kisavirsi
TTITLE11=Karjamajalla
TTITLE12=Varsan polkka
TTITLE13=Liisa Pessi, 62 v.
TTITLE14=Kuulan polska no. 1
EXTD=
EXTT0=
EXTT1=
EXTT2=
EXTT3=
EXTT4=
EXTT5=
EXTT6=
EXTT7=
EXTT8=
EXTT9=
EXTT10=
EXTT11=
EXTT12=
EXTT13=
EXTT14=
PLAYORDER=
